<?xml version="1.0" encoding="utf-8"?>
<!-- Generator: Adobe Illustrator 26.4.1, SVG Export Plug-In . SVG Version: 6.00 Build 0)  -->
<svg version="1.1" id="Capa_1" xmlns="http://www.w3.org/2000/svg" xmlns:xlink="http://www.w3.org/1999/xlink" x="0px" y="0px"
	 viewBox="0 0 232.56 47.64" style="enable-background:new 0 0 232.56 47.64;" xml:space="preserve">
<style type="text/css">
	.st0{fill:#D3ECEC;}
	.st1{fill:url(#SVGID_1_);}
	.st2{fill:#035E63;}
	.st3{opacity:0.2;fill:#249EA1;}
	.st4{fill:#F4F4F6;}
	.st5{fill:#249EA1;}
	.st6{fill:none;stroke:#249EA1;stroke-miterlimit:10;}
	.st7{clip-path:url(#SVGID_00000124122751401096032740000004947702130129696911_);}
	.st8{opacity:0.8;fill:url(#SVGID_00000026138453842576295480000011208984360851486605_);}
	.st9{fill:url(#SVGID_00000003082040087227370400000017363622106454311870_);}
	.st10{fill:#FFFFFF;}
	.st11{clip-path:url(#SVGID_00000153666677990772657270000016803218519797322418_);}
	.st12{opacity:0.8;fill:url(#SVGID_00000052815547696737510240000006909264090135789498_);}
	.st13{fill:url(#SVGID_00000133518214917320333640000017900292963382674353_);}
	.st14{fill-rule:evenodd;clip-rule:evenodd;fill:#FFFFFF;}
	.st15{clip-path:url(#SVGID_00000176755826449649791710000009545626186469822372_);}
	.st16{opacity:0.8;fill:url(#SVGID_00000159449111459614976120000016690821188049068986_);}
	.st17{fill:url(#SVGID_00000034070394271945142900000014315928960839320720_);}
	.st18{clip-path:url(#SVGID_00000172419451625362072080000013420744981662622384_);}
	.st19{opacity:0.8;fill:url(#SVGID_00000125589519204576429610000008654491656643336124_);}
	.st20{fill:url(#SVGID_00000039127100063608175920000000371181851741576636_);}
	.st21{fill:url(#SVGID_00000163792551267464502510000002570473973177619869_);}
	.st22{clip-path:url(#SVGID_00000142879072494555838870000015181693675839434643_);}
	.st23{opacity:0.8;fill:url(#SVGID_00000075846695278652621100000014766714482160951736_);}
	.st24{fill:url(#SVGID_00000015317815312123248360000006882265572531164588_);}
	.st25{clip-path:url(#SVGID_00000045576515788830930150000012092504173136265352_);}
	.st26{opacity:0.8;fill:url(#SVGID_00000174570034778884680350000017727113355738836912_);}
	.st27{fill:url(#SVGID_00000006692246557185928640000013741887996710001556_);}
	.st28{clip-path:url(#SVGID_00000176733973418105270740000011616494121811312027_);}
	.st29{opacity:0.8;fill:url(#SVGID_00000090995696237258115050000007631372996212674239_);}
	.st30{fill:url(#SVGID_00000050645422228212818610000004777662764086842259_);}
	.st31{clip-path:url(#SVGID_00000157997803828583632140000004461450118539075727_);}
	.st32{opacity:0.8;fill:url(#SVGID_00000036965260572471022960000013965307921926295734_);}
	.st33{fill:url(#SVGID_00000083080636514923290900000015570130882325936316_);}
	.st34{clip-path:url(#SVGID_00000091697388820680069520000005873373319376135077_);}
	.st35{clip-path:url(#SVGID_00000091693838050555162960000005177193329523200653_);fill:#0B1022;}
	.st36{clip-path:url(#SVGID_00000091693838050555162960000005177193329523200653_);}
	.st37{clip-path:url(#SVGID_00000149378707483230953260000014488817299143922853_);fill:#FFFFFF;}
	
		.st38{clip-path:url(#SVGID_00000149378707483230953260000014488817299143922853_);fill:none;stroke:#2EA4DD;stroke-width:2.2873;stroke-miterlimit:10;}
	.st39{opacity:0.5;clip-path:url(#SVGID_00000149378707483230953260000014488817299143922853_);}
	
		.st40{clip-path:url(#SVGID_00000121266085825244717600000011543735928095440530_);fill:none;stroke:#424242;stroke-width:2.2873;stroke-miterlimit:10;}
	.st41{clip-path:url(#SVGID_00000149378707483230953260000014488817299143922853_);fill:#2EA4DD;}
	.st42{opacity:0.5;clip-path:url(#SVGID_00000001644686446114124260000000027608161850109858_);}
	
		.st43{clip-path:url(#SVGID_00000125601778588006653810000009485815407575478172_);fill:none;stroke:#424242;stroke-width:2.2873;stroke-miterlimit:10;}
	
		.st44{clip-path:url(#SVGID_00000076587563933579617820000013849447820897905050_);fill:none;stroke:#424242;stroke-width:2.2873;stroke-miterlimit:10;}
	.st45{clip-path:url(#SVGID_00000109004220768014611840000004470861664318537863_);fill:#424242;}
	.st46{clip-path:url(#SVGID_00000001644686446114124260000000027608161850109858_);fill:#2EA4DD;}
	.st47{clip-path:url(#SVGID_00000012437545022279354540000018373102590476457615_);fill:#2EA4DD;}
	.st48{opacity:0.5;clip-path:url(#SVGID_00000003077124069880986430000005904743983418605954_);}
	.st49{clip-path:url(#SVGID_00000029749048702141634990000002964679659041229487_);fill:#424242;}
	.st50{opacity:0.5;clip-path:url(#SVGID_00000093143928921302065350000003418328352409503899_);}
	.st51{clip-path:url(#SVGID_00000102504703840499316510000013291450276731758214_);fill:#424242;}
	.st52{opacity:0.5;clip-path:url(#SVGID_00000136386901170673521900000017156649182225363383_);}
	.st53{clip-path:url(#SVGID_00000152976593505135929870000006654196116073525430_);fill:#424242;}
	.st54{clip-path:url(#SVGID_00000072992117318333550170000018389015357308356240_);fill:#424242;}
	
		.st55{clip-path:url(#SVGID_00000136386901170673521900000017156649182225363383_);fill:none;stroke:#2EA4DD;stroke-width:2.2873;stroke-miterlimit:10;}
	.st56{clip-path:url(#SVGID_00000103257514110175979800000003314389787079938953_);fill:#2EA4DD;}
	.st57{opacity:0.5;clip-path:url(#SVGID_00000158015096452108225140000008709820641890056098_);}
	
		.st58{clip-path:url(#SVGID_00000023960607491317626530000016936574244143135360_);fill:none;stroke:#424242;stroke-width:2.2873;stroke-miterlimit:10;}
	
		.st59{clip-path:url(#SVGID_00000158015096452108225140000008709820641890056098_);fill:none;stroke:#2EA4DD;stroke-width:2.2873;stroke-miterlimit:10;}
	
		.st60{clip-path:url(#SVGID_00000084508652945412044440000008834354797742051994_);fill:none;stroke:#424242;stroke-width:2.2873;stroke-miterlimit:10;}
	
		.st61{clip-path:url(#SVGID_00000158015096452108225140000008709820641890056098_);fill:none;stroke:#E98000;stroke-width:1.5248;stroke-miterlimit:10;}
	
		.st62{clip-path:url(#SVGID_00000181068092680579166570000008079627070358146944_);fill:none;stroke:#2CA6E0;stroke-width:1.5248;stroke-miterlimit:10;}
	.st63{clip-path:url(#SVGID_00000002374624946982493780000006417711663928915877_);}
	.st64{clip-path:url(#SVGID_00000134963042361773987100000009784020534740059798_);}
	.st65{clip-path:url(#SVGID_00000080893632499104887770000017767473121012420775_);}
	.st66{clip-path:url(#SVGID_00000098943105294283832270000011670534763465933977_);fill:#2EA4DD;}
	
		.st67{clip-path:url(#SVGID_00000180328833376807718920000004165807947362745007_);fill:none;stroke:#2EA4DD;stroke-width:2.2873;stroke-linecap:round;stroke-miterlimit:10;}
	.st68{clip-path:url(#SVGID_00000180328833376807718920000004165807947362745007_);fill:#2EA4DD;}
	.st69{opacity:0.75;clip-path:url(#SVGID_00000109021494171668622400000007144431901434001319_);}
	.st70{clip-path:url(#SVGID_00000068651902700138247530000017508271924968224954_);fill:#2EA4DD;}
	.st71{clip-path:url(#SVGID_00000109021494171668622400000007144431901434001319_);fill:#2EA4DD;}
	.st72{clip-path:url(#SVGID_00000104679847270771510270000005628895760939164341_);fill:#2EA4DD;}
	.st73{fill:none;stroke:#F4F4F6;stroke-width:4;stroke-miterlimit:10;}
	.st74{fill:none;stroke:#249EA1;stroke-width:0.5;stroke-miterlimit:10;}
	.st75{fill:none;stroke:#249EA1;stroke-width:0.5;stroke-linecap:round;stroke-miterlimit:10;}
	.st76{fill:#FF6464;}
	.st77{fill:none;stroke:#DC2027;stroke-width:1.1984;stroke-miterlimit:10;}
	.st78{opacity:0.9091;fill:none;stroke:#DC2027;stroke-width:1.1003;stroke-miterlimit:10;}
	.st79{opacity:0.8182;fill:none;stroke:#DC2027;stroke-width:1.0021;stroke-miterlimit:10;}
	.st80{opacity:0.7273;fill:none;stroke:#DC2027;stroke-width:0.9039;stroke-miterlimit:10;}
	.st81{opacity:0.6364;fill:none;stroke:#DC2027;stroke-width:0.8058;stroke-miterlimit:10;}
	.st82{opacity:0.5455;fill:none;stroke:#DC2027;stroke-width:0.7076;stroke-miterlimit:10;}
	.st83{opacity:0.4545;fill:none;stroke:#DC2027;stroke-width:0.6095;stroke-miterlimit:10;}
	.st84{opacity:0.3636;fill:none;stroke:#DC2027;stroke-width:0.5113;stroke-miterlimit:10;}
	.st85{opacity:0.2727;fill:none;stroke:#DC2027;stroke-width:0.4131;stroke-miterlimit:10;}
	.st86{opacity:0.1818;fill:none;stroke:#DC2027;stroke-width:0.315;stroke-miterlimit:10;}
	.st87{opacity:0.0909;fill:none;stroke:#DC2027;stroke-width:0.2168;stroke-miterlimit:10;}
	.st88{opacity:0;fill:none;stroke:#DC2027;stroke-width:0.1187;stroke-miterlimit:10;}
	.st89{clip-path:url(#SVGID_00000020398916854377663020000007075633497230160807_);}
	.st90{fill:#E2DBD5;}
	.st91{fill:#DDD8B9;}
	.st92{fill:#D0C2B8;}
	.st93{fill:#A9CD99;}
	.st94{fill:#72BBB9;}
	.st95{fill:#7795B4;}
	.st96{fill:url(#SVGID_00000088836035969764702240000012192621223225716670_);}
	.st97{opacity:0.4;}
	.st98{opacity:0;}
	.st99{opacity:0.0164;}
	.st100{opacity:0.0328;}
	.st101{opacity:0.0492;}
	.st102{opacity:0.0656;}
	.st103{opacity:0.082;}
	.st104{opacity:0.0984;}
	.st105{opacity:0.1148;}
	.st106{opacity:0.1311;}
	.st107{opacity:0.1475;}
	.st108{opacity:0.1639;}
	.st109{opacity:0.1803;}
	.st110{opacity:0.1967;}
	.st111{opacity:0.2131;}
	.st112{opacity:0.2295;}
	.st113{opacity:0.2459;}
	.st114{opacity:0.2623;}
	.st115{opacity:0.2787;}
	.st116{opacity:0.2951;}
	.st117{opacity:0.3115;}
	.st118{opacity:0.3279;}
	.st119{opacity:0.3443;}
	.st120{opacity:0.3607;}
	.st121{opacity:0.377;}
	.st122{opacity:0.3934;}
	.st123{opacity:0.4098;}
	.st124{opacity:0.4262;}
	.st125{opacity:0.4426;}
	.st126{opacity:0.459;}
	.st127{opacity:0.4754;}
	.st128{opacity:0.4918;}
	.st129{opacity:0.5082;}
	.st130{opacity:0.5246;}
	.st131{opacity:0.541;}
	.st132{opacity:0.5574;}
	.st133{opacity:0.5738;}
	.st134{opacity:0.5902;}
	.st135{opacity:0.6066;}
	.st136{opacity:0.623;}
	.st137{opacity:0.6393;}
	.st138{opacity:0.6557;}
	.st139{opacity:0.6721;}
	.st140{opacity:0.6885;}
	.st141{opacity:0.7049;}
	.st142{opacity:0.7213;}
	.st143{opacity:0.7377;}
	.st144{opacity:0.7541;}
	.st145{opacity:0.7705;}
	.st146{opacity:0.7869;}
	.st147{opacity:0.8033;}
	.st148{opacity:0.8197;}
	.st149{opacity:0.8361;}
	.st150{opacity:0.8525;}
	.st151{opacity:0.8689;}
	.st152{opacity:0.8852;}
	.st153{opacity:0.9016;}
	.st154{opacity:0.918;}
	.st155{opacity:0.9344;}
	.st156{opacity:0.9508;}
	.st157{opacity:0.9672;}
	.st158{opacity:0.9836;}
	.st159{fill:#FFDCB1;}
	.st160{fill:url(#SVGID_00000170253865779647192980000000355900089029536671_);}
	.st161{fill:url(#SVGID_00000026873650499155479480000008711862868908250508_);}
	.st162{fill:url(#SVGID_00000169554449841113899020000006930501690681791373_);}
	.st163{fill:url(#SVGID_00000145042124938993764050000003211387007018324375_);}
	.st164{fill:#3E3E3E;}
	.st165{fill:url(#SVGID_00000018233729212551511050000002889760195942350520_);}
	.st166{fill:url(#SVGID_00000168832969849789256830000005897054062719347629_);}
	.st167{fill:url(#SVGID_00000018934378427475049780000001573441332906054278_);}
	.st168{fill:url(#SVGID_00000088123801717251989040000009349099659176121748_);}
	.st169{fill:url(#SVGID_00000047043107428876173540000009594255539151674244_);}
	.st170{fill:url(#SVGID_00000138551613715398305380000011618141675345062830_);}
	.st171{fill:url(#SVGID_00000148645845323563337470000009243117062855084439_);}
	.st172{fill:url(#SVGID_00000052097870613929993940000008654852082400841915_);}
	.st173{fill:url(#SVGID_00000160899475855260374820000017886752033135384452_);}
	.st174{fill:url(#SVGID_00000069389025402488164450000018297613518302656642_);}
	.st175{fill:url(#SVGID_00000062881473735232250060000016412748865156318117_);}
	.st176{fill:url(#SVGID_00000104670032098136670370000001999811926941929880_);}
	.st177{fill:url(#SVGID_00000096738533125171123810000017096987527562694038_);}
	.st178{fill:url(#SVGID_00000178206263681673285030000006233576481027343543_);}
	.st179{fill:url(#SVGID_00000131369343424837335950000006150887479336869768_);}
	.st180{fill:url(#SVGID_00000036231340671020612880000000714363989019677352_);}
	.st181{fill:url(#SVGID_00000072242634612525468590000011215990305274054300_);}
	.st182{fill:url(#SVGID_00000111893891602346132310000004068166586186444204_);}
	.st183{fill:url(#SVGID_00000003063933012732833270000008962061228172513693_);}
	.st184{fill:#C7C7C7;}
	.st185{fill:url(#SVGID_00000183238681280125153300000013866324432159554449_);}
	.st186{fill:url(#SVGID_00000105406434059212016950000015931097637928987036_);}
	.st187{fill:url(#SVGID_00000071560215121101775760000010796780038023501477_);}
	.st188{fill:url(#SVGID_00000012437850453586093030000012847890364868174781_);}
	.st189{fill:url(#SVGID_00000040565252664609005010000009493748664190837657_);}
	.st190{fill:url(#SVGID_00000026877773654434927410000003557436755569610401_);}
	.st191{fill:url(#SVGID_00000142153973255686212930000013351976785240363663_);}
	.st192{fill:url(#SVGID_00000132781344439696466440000004073433870896333459_);}
	.st193{fill:url(#SVGID_00000002385109318639914130000011188987038439709099_);}
	.st194{fill:url(#SVGID_00000077291867288151717440000013164821017787616441_);}
	.st195{fill:url(#SVGID_00000170248121641072376690000001796689209278654118_);}
	.st196{clip-path:url(#SVGID_00000143606981922484616100000011427176920313729464_);}
	.st197{fill:#999999;}
	.st198{fill:none;stroke:#249EA1;stroke-width:0.9419;stroke-miterlimit:10;}
	.st199{fill:none;stroke:#249EA1;stroke-width:0.5781;stroke-miterlimit:10;}
	.st200{fill:url(#SVGID_00000005232431967223373690000006610388313014473658_);}
	.st201{fill:url(#SVGID_00000108273188437269477090000009819702410415645094_);}
	.st202{fill:url(#SVGID_00000127043796442823197650000017619638240786663808_);}
	.st203{fill:url(#SVGID_00000023255609763939988250000011449826716683356840_);}
	.st204{fill:url(#SVGID_00000086650218500471951350000009559419578704464287_);}
	.st205{fill:url(#SVGID_00000143584873161607938320000015853079948699195790_);}
	.st206{fill:url(#SVGID_00000042701451128743689350000010466924716826357936_);}
	.st207{fill:url(#SVGID_00000154409769946727840270000017235783532860299166_);}
	.st208{fill:url(#SVGID_00000060024700677799330830000006709194059721647262_);}
	.st209{fill:url(#SVGID_00000025441506600880782240000018051976948347639740_);}
	.st210{fill:url(#SVGID_00000092420374426015186770000004112434073446981274_);}
	.st211{fill:url(#SVGID_00000183238736653359085610000008170721952443168438_);}
	.st212{fill:url(#SVGID_00000124880067021735582840000013689090434087480461_);}
	.st213{fill:none;stroke:#249EA1;stroke-width:0.8146;stroke-miterlimit:10;}
	.st214{opacity:0.15;fill:#B4E1E6;}
	.st215{fill:none;stroke:#249EA1;stroke-width:1.0701;stroke-miterlimit:10;}
	.st216{fill:none;stroke:#249EA1;stroke-width:1.0702;stroke-linecap:round;stroke-miterlimit:10;}
	.st217{fill:#249EA1;stroke:url(#SVGID_00000125576972961612643550000002986742839293409931_);stroke-miterlimit:10;}
	.st218{fill:#249EA1;stroke:url(#SVGID_00000159468378233605215730000008186798004832173728_);stroke-miterlimit:10;}
	.st219{fill:#249EA1;stroke:url(#SVGID_00000097500280542815692610000011020255393907066806_);stroke-miterlimit:10;}
	.st220{fill:#249EA1;stroke:url(#SVGID_00000018959822932111094360000005209089339215149484_);stroke-miterlimit:10;}
	.st221{clip-path:url(#SVGID_00000008150983729741810710000017939708037013860776_);}
	.st222{fill:none;stroke:#FFFFFF;stroke-miterlimit:10;}
	.st223{fill:#92CFD0;}
	.st224{fill:url(#SVGID_00000021799428641228216990000000932340835806395304_);}
	.st225{opacity:0.15;fill:none;stroke:#B4E1E6;stroke-miterlimit:10;}
	.st226{opacity:0.15;fill:none;stroke:#B3B3B3;stroke-miterlimit:10;}
	.st227{fill:none;stroke:#249EA1;stroke-width:0.75;stroke-linecap:round;stroke-linejoin:round;stroke-miterlimit:10;}
	.st228{fill:none;stroke:#B3B3B3;stroke-width:0.75;stroke-linecap:round;stroke-miterlimit:10;}
	.st229{clip-path:url(#SVGID_00000036964143998247397060000000649748601059935106_);}
	.st230{fill:none;stroke:#249EA1;stroke-linecap:round;stroke-miterlimit:10;}
	.st231{fill:url(#SVGID_00000084509798504459823000000008634925232759620226_);}
	.st232{opacity:0.3;fill:none;stroke:#249EA1;stroke-width:0.75;stroke-linecap:round;stroke-linejoin:round;stroke-miterlimit:10;}
	.st233{fill:none;stroke:#000000;stroke-linecap:round;stroke-linejoin:round;stroke-miterlimit:10;}
	.st234{clip-path:url(#SVGID_00000104677185009248086190000011416349069146757515_);}
	.st235{clip-path:url(#SVGID_00000177450652019428951370000003623313708160746428_);}
	.st236{fill:url(#SVGID_00000010275316895455269180000008227822639348905875_);}
	.st237{opacity:0.15;fill:none;stroke:#249EA1;stroke-miterlimit:10;}
	.st238{clip-path:url(#SVGID_00000013182128878128647020000014911733053572021157_);}
	.st239{fill:url(#SVGID_00000064353320616864491390000018324283322097306284_);}
	.st240{fill:url(#SVGID_00000146458492088990171220000014251763953951171241_);}
	.st241{fill:url(#SVGID_00000132770535842620379790000005327090223219655826_);}
	.st242{fill:url(#SVGID_00000129166585175366483250000001393929733493437089_);}
	.st243{fill:url(#SVGID_00000051345398538594985390000013925067324620422845_);}
	.st244{fill:url(#SVGID_00000173159398188931797710000009615832892591929023_);}
	.st245{fill:url(#SVGID_00000091729515879016738360000009671977516643848617_);}
	.st246{fill:url(#SVGID_00000057108564297686322850000018212259080890984092_);}
	.st247{fill:url(#SVGID_00000051382170348625125760000005526061354257787530_);}
	.st248{fill:url(#SVGID_00000138534917810298151900000017059711649702247606_);}
	.st249{clip-path:url(#SVGID_00000034070861683425029880000003884570485078186674_);}
	.st250{fill:url(#SVGID_00000120552896554753147340000002690002773341238927_);}
	.st251{fill:none;stroke:#249EA1;stroke-width:1.723;stroke-miterlimit:10;}
	.st252{fill:none;stroke:#249EA1;stroke-width:1.723;stroke-linecap:round;stroke-miterlimit:10;}
	.st253{opacity:0.15;}
	.st254{fill:none;stroke:#D3ECEC;stroke-miterlimit:10;}
	.st255{clip-path:url(#SVGID_00000088113083520911813110000005311459062106890399_);}
	.st256{clip-path:url(#SVGID_00000032634346229305377040000018303073046519076287_);}
	.st257{fill:url(#SVGID_00000091737006374312740740000010284382899455653021_);}
	.st258{clip-path:url(#SVGID_00000012452917911346125950000010375839526276284804_);}
	.st259{clip-path:url(#SVGID_00000041986913066935198330000011150713856525575559_);}
	.st260{fill:url(#SVGID_00000036252033172107485170000011087788738830592703_);}
	.st261{clip-path:url(#SVGID_00000086691670428244790910000007588749330236268930_);}
	.st262{clip-path:url(#SVGID_00000164474049219115344370000006654566641846094223_);}
	.st263{fill:url(#SVGID_00000093143659972579961180000004603495830175639966_);}
	.st264{fill:#249EA1;stroke:url(#SVGID_00000075149603817751679760000017529914041615191223_);stroke-miterlimit:10;}
	.st265{fill:#249EA1;stroke:url(#SVGID_00000011032592388392460720000010145003556157117876_);stroke-miterlimit:10;}
	.st266{fill:#249EA1;stroke:url(#SVGID_00000146495489660545243260000008917789513271187878_);stroke-miterlimit:10;}
	.st267{fill:#249EA1;stroke:url(#SVGID_00000011024503663822633870000007139719893620278704_);stroke-miterlimit:10;}
	.st268{fill:url(#SVGID_00000165218256950817927830000003772630845418245821_);}
	.st269{fill:url(#SVGID_00000161622304761949830580000014885517719949814197_);}
	.st270{fill:url(#SVGID_00000115499308703914511250000011707768043283514541_);}
	.st271{fill:url(#SVGID_00000132089263915042805960000010861007925351719352_);}
	.st272{fill:url(#SVGID_00000078758247783271788200000016182860874757645451_);}
	.st273{fill:url(#SVGID_00000002360400944469093120000003023429139491189897_);}
	.st274{fill:url(#SVGID_00000048488154080428321380000010960890119073778606_);}
	.st275{fill:url(#SVGID_00000010292373143692255150000015871969860576197260_);}
	.st276{fill:url(#SVGID_00000098914562013379115720000013103921007626014853_);}
	.st277{fill:url(#SVGID_00000003092199218646374160000011711609937186476428_);}
	.st278{clip-path:url(#SVGID_00000164474508787549063570000002974948164583545767_);}
	.st279{fill:#249EA1;stroke:url(#SVGID_00000024719878805482391530000007016919280421593744_);stroke-miterlimit:10;}
	.st280{fill:#249EA1;stroke:url(#SVGID_00000145759685242539487140000003867350965483714978_);stroke-miterlimit:10;}
	.st281{fill:#249EA1;stroke:url(#SVGID_00000116939042691207028460000014753548917763772087_);stroke-miterlimit:10;}
	.st282{fill:#249EA1;stroke:url(#SVGID_00000080202252937294062000000005840089184520315800_);stroke-miterlimit:10;}
	.st283{fill:url(#SVGID_00000116945323187093616450000000666157109601128892_);}
	.st284{fill:url(#SVGID_00000012430705712119878980000001845356598862847876_);}
	.st285{fill:url(#SVGID_00000036253613133718584330000000251922940449031837_);}
	.st286{fill:url(#SVGID_00000071521267176178699510000002902984299369827503_);}
	.st287{fill:url(#SVGID_00000023263119133832257470000002254386830671216518_);}
	.st288{fill:url(#SVGID_00000147936400810645889100000010592429173240517780_);}
	.st289{fill:url(#SVGID_00000166662418805487735790000005712283698112614060_);}
	.st290{fill:url(#SVGID_00000148646143421987673020000007647169511938246305_);}
	.st291{fill:url(#SVGID_00000012471698833273530850000010120339407521074575_);}
	.st292{fill:url(#SVGID_00000175295349370371157460000010281657454516820620_);}
	.st293{clip-path:url(#SVGID_00000176751091856567570050000011415383990005388950_);}
	.st294{clip-path:url(#SVGID_00000077302519031022404740000000003204825767840946_);}
	.st295{fill:none;stroke:#249EA1;stroke-width:1.1188;stroke-miterlimit:10;}
	.st296{fill:url(#SVGID_00000137096404252849401350000005953880536836751517_);}
	.st297{fill:url(#SVGID_00000124125660882360824440000003066867867705100948_);}
	.st298{fill:url(#SVGID_00000080897099642639841440000014176988547640554920_);}
	.st299{fill:url(#SVGID_00000154417915452383558140000015191346417095021443_);}
	.st300{fill:url(#SVGID_00000183944783188246817210000010847970861997606022_);}
	.st301{fill:url(#SVGID_00000018958862374062791400000004456701484925792702_);}
	.st302{fill:url(#SVGID_00000142152187128761868930000004619914096625323147_);}
	.st303{fill:url(#SVGID_00000162340471435602295960000010015595412142004907_);}
	.st304{fill:url(#SVGID_00000076580888834208976080000014608915860461211044_);}
	.st305{fill:url(#SVGID_00000136370100589506107620000014633204046950571919_);}
	.st306{fill:url(#SVGID_00000178170759021178828770000010230465091808771745_);}
	.st307{clip-path:url(#SVGID_00000025411000141200343960000015500640276021815711_);}
	.st308{fill:url(#SVGID_00000145048990548881148580000003418590956618516142_);}
	.st309{fill:url(#SVGID_00000115473425807232325780000008298090595874454163_);}
	.st310{fill:url(#SVGID_00000031189080024768978450000015870220549509250227_);}
	.st311{fill:url(#SVGID_00000172411549999956247080000017077240373054192275_);}
	.st312{fill:url(#SVGID_00000145750472753366572160000000912823439421831311_);}
	.st313{fill:url(#SVGID_00000111888020273543030650000005499927605242897040_);}
	.st314{fill:url(#SVGID_00000022519688849641433940000009485427978717541544_);}
	.st315{fill:url(#SVGID_00000054255216890090911060000009399701607886939057_);}
	.st316{fill:url(#SVGID_00000106861685221427907930000004145470320807777690_);}
	.st317{fill:url(#SVGID_00000163054014240139943430000013074492515479775107_);}
	.st318{clip-path:url(#SVGID_00000109750192982358623880000003291392813911391875_);}
	.st319{fill:url(#SVGID_00000110442495375866650140000015711616031241675173_);}
	.st320{fill:url(#SVGID_00000031197804017199161470000001618480553488731047_);}
	.st321{fill:url(#SVGID_00000077282991188726067910000014088643594465458110_);}
	.st322{fill:url(#SVGID_00000021840313919233187610000008518536671851851955_);}
	.st323{fill:url(#SVGID_00000060029888240527577340000009395171399150916781_);}
	.st324{fill:url(#SVGID_00000150097230920822080640000017722231518796501909_);}
	.st325{fill:url(#SVGID_00000026883954527414112020000001018331062804418232_);}
	.st326{fill:url(#SVGID_00000106130063889360649700000000544090715288309939_);}
	.st327{fill:url(#SVGID_00000039122055497808229320000006927309385416559761_);}
	.st328{fill:url(#SVGID_00000172417812829141537160000002067292542479712422_);}
	.st329{fill:url(#SVGID_00000023974336361093162740000011496280260897380243_);}
	.st330{clip-path:url(#SVGID_00000045582813781653396800000018179086775431555506_);fill:#FFFFFF;}
	.st331{clip-path:url(#SVGID_00000045582813781653396800000018179086775431555506_);}
	.st332{fill:url(#SVGID_00000097478498732658029200000004122573284640269987_);}
	.st333{fill:none;stroke:#035E63;stroke-width:2;stroke-miterlimit:10;}
	.st334{opacity:0.15;fill:none;stroke:#249EA1;stroke-width:1.723;stroke-miterlimit:10;}
	.st335{fill:#42210B;}
	.st336{fill:url(#SVGID_00000028294220579986550800000008428890273229228443_);}
	.st337{fill:url(#SVGID_00000052084501969573332650000003159048503123042451_);}
	.st338{fill:url(#SVGID_00000049188450559006087190000008454119634443598228_);}
	.st339{fill:url(#SVGID_00000111899064981887720790000011394039591542551427_);}
	.st340{fill:url(#SVGID_00000062186873260909984670000007569249961726610879_);}
	.st341{fill:url(#SVGID_00000074425330417841141240000007655528942781210003_);}
	.st342{fill:url(#SVGID_00000168812744500477364200000004370285930658822314_);}
	.st343{fill:url(#SVGID_00000088114848160156732910000008591658184559906495_);}
	.st344{fill:url(#SVGID_00000048501444804090826500000009078743715084188550_);}
	.st345{fill:url(#SVGID_00000134219769795032203140000009475941428425832074_);}
	.st346{clip-path:url(#SVGID_00000119808151927782562770000004080135996033473966_);}
	.st347{clip-path:url(#SVGID_00000125593538486874299230000005939387910969769104_);}
	.st348{fill:url(#SVGID_00000159451686881367240790000006856369340364165282_);}
	.st349{fill:#249EA1;stroke:url(#SVGID_00000032622623003201319120000003356180501080212405_);stroke-miterlimit:10;}
	.st350{fill:#249EA1;stroke:url(#SVGID_00000101807601994448777640000000496521514804029866_);stroke-miterlimit:10;}
	.st351{fill:#249EA1;stroke:url(#SVGID_00000067918942902168903630000015852620220415313807_);stroke-miterlimit:10;}
	.st352{fill:#249EA1;stroke:url(#SVGID_00000127030734703972432460000000339536097040610224_);stroke-miterlimit:10;}
	.st353{clip-path:url(#SVGID_00000072993571010510104650000013408167612928237449_);}
	.st354{fill:url(#SVGID_00000154417407332108714770000004410865747347025286_);}
	.st355{clip-path:url(#SVGID_00000052064868309482221820000013356523292301579196_);}
	.st356{fill:url(#SVGID_00000044872216219984888830000016070327295411607953_);}
	.st357{clip-path:url(#SVGID_00000036945055566759583090000011456834907998730625_);}
	.st358{clip-path:url(#SVGID_00000101097134809595155840000017550981674303534216_);}
	.st359{fill:url(#SVGID_00000157299361272629659540000012062466095026160524_);}
	.st360{fill:url(#SVGID_00000092425154358225161640000016421236667455672709_);}
	.st361{fill:url(#SVGID_00000180327930618563076310000017681004509347069843_);}
	.st362{fill:url(#SVGID_00000052794967905162178770000015524405086514100910_);}
	.st363{fill:url(#SVGID_00000170241203940998721070000016245513648090611343_);}
	.st364{fill:url(#SVGID_00000028284297230689882520000007457379782480541335_);}
	.st365{fill:url(#SVGID_00000110438976982671940310000007297998824567986848_);}
	.st366{fill:url(#SVGID_00000045603088703307743110000014594052304543047331_);}
	.st367{fill:url(#SVGID_00000044144621456403745270000003752371617156822430_);}
	.st368{fill:url(#SVGID_00000096770734105880025910000013779699077514237877_);}
	.st369{fill:url(#SVGID_00000029756908376062473760000000314306534792660654_);}
	.st370{clip-path:url(#SVGID_00000126283761348269163250000003411340228837211781_);}
	.st371{fill:url(#SVGID_00000160885196121542030800000007927266299628838784_);}
	.st372{fill:url(#SVGID_00000016778904312983753940000016522211131110127529_);}
	
		.st373{fill:none;stroke:url(#SVGID_00000031168679442165591440000012578688216385718449_);stroke-width:13;stroke-linecap:round;stroke-linejoin:round;stroke-miterlimit:10;}
	
		.st374{fill:none;stroke:url(#SVGID_00000136394744595855162220000010610612979184473730_);stroke-width:13;stroke-linecap:round;stroke-linejoin:round;stroke-miterlimit:10;}
	.st375{fill:none;stroke:#249EA1;stroke-width:10;stroke-miterlimit:10;}
	.st376{fill:#D77104;}
	.st377{fill:#263238;}
</style>
<g>
	<polygon class="st376" points="29.82,11.62 33.88,18.39 36.89,13.02 32.92,6.17 13.23,6.17 3.37,23.84 13.67,41.47 33.45,41.47 
		30.54,36.35 16.64,36.35 9.42,23.84 16.23,11.62 	"/>
	<polygon class="st377" points="66.39,6.17 46.6,6.17 30.54,36.35 33.45,41.47 49.51,11.29 63.42,11.29 70.64,23.8 63.83,36.02 
		50.24,36.02 46.18,29.25 43.17,34.62 47.14,41.47 66.83,41.47 76.69,23.8 	"/>
	<g>
		<path class="st377" d="M24.04,18.33c-1.69,0-2.91,0.47-3.67,1.41c-0.75,0.94-1.13,2.22-1.13,3.85c0,0.79,0.09,1.51,0.28,2.15
			c0.19,0.64,0.47,1.2,0.84,1.66s0.84,0.83,1.4,1.08c0.56,0.26,1.21,0.38,1.96,0.38c0.4,0,0.75-0.01,1.04-0.02
			c0.29-0.02,0.54-0.05,0.76-0.09v-5.61h3.63v7.98c-0.43,0.17-1.13,0.35-2.1,0.55c-0.96,0.19-2.15,0.29-3.56,0.29
			c-1.21,0-2.31-0.19-3.29-0.56c-0.99-0.37-1.83-0.92-2.53-1.63s-1.24-1.59-1.62-2.63c-0.38-1.04-0.57-2.23-0.57-3.56
			c0-1.35,0.21-2.54,0.63-3.58c0.42-1.04,0.99-1.92,1.72-2.64c0.73-0.72,1.59-1.27,2.57-1.64c0.99-0.37,2.04-0.56,3.15-0.56
			c0.76,0,1.45,0.05,2.06,0.15c0.61,0.1,1.14,0.22,1.58,0.35c0.44,0.13,0.81,0.27,1.09,0.41c0.29,0.14,0.49,0.25,0.62,0.33
			l-1.05,2.91c-0.5-0.26-1.07-0.49-1.71-0.69C25.5,18.43,24.8,18.33,24.04,18.33z"/>
	</g>
	<g>
		<path class="st376" d="M56.46,28.89c0.51,0,0.93-0.04,1.27-0.13c0.33-0.09,0.6-0.2,0.8-0.35c0.2-0.15,0.34-0.32,0.42-0.52
			c0.08-0.2,0.12-0.43,0.12-0.67c0-0.53-0.25-0.97-0.74-1.32c-0.5-0.35-1.35-0.73-2.56-1.13c-0.53-0.19-1.06-0.4-1.58-0.64
			c-0.53-0.24-1-0.54-1.42-0.91c-0.42-0.36-0.76-0.81-1.02-1.33c-0.26-0.52-0.4-1.15-0.4-1.9c0-0.74,0.14-1.42,0.42-2.01
			c0.28-0.6,0.68-1.11,1.19-1.52c0.51-0.42,1.13-0.74,1.86-0.97c0.73-0.22,1.55-0.34,2.47-0.34c1.09,0,2.03,0.12,2.82,0.35
			c0.79,0.23,1.44,0.49,1.96,0.77L61,19.13c-0.45-0.23-0.95-0.44-1.5-0.62c-0.55-0.18-1.21-0.27-1.99-0.27
			c-0.87,0-1.49,0.12-1.87,0.36c-0.38,0.24-0.57,0.61-0.57,1.11c0,0.3,0.07,0.54,0.21,0.74c0.14,0.2,0.34,0.38,0.59,0.55
			c0.26,0.16,0.55,0.31,0.88,0.44c0.33,0.13,0.7,0.27,1.11,0.41c0.84,0.31,1.57,0.62,2.19,0.92c0.62,0.3,1.14,0.66,1.55,1.06
			c0.41,0.4,0.72,0.88,0.92,1.42c0.2,0.54,0.3,1.2,0.3,1.98c0,1.51-0.53,2.67-1.58,3.5c-1.06,0.83-2.65,1.25-4.77,1.25
			c-0.71,0-1.36-0.04-1.93-0.13c-0.57-0.09-1.08-0.19-1.52-0.31c-0.44-0.12-0.82-0.26-1.14-0.4c-0.32-0.14-0.59-0.27-0.8-0.4
			l1.02-2.89c0.48,0.26,1.07,0.5,1.78,0.71C54.57,28.78,55.44,28.89,56.46,28.89z"/>
	</g>
</g>
<g>
	<path class="st377" d="M94.64,18.35c-1.76,0-3.04,0.49-3.82,1.47c-0.78,0.98-1.18,2.32-1.18,4.02c0,0.83,0.1,1.57,0.29,2.25
		c0.19,0.67,0.49,1.25,0.87,1.74c0.39,0.49,0.87,0.86,1.46,1.13c0.58,0.27,1.26,0.4,2.04,0.4c0.42,0,0.78-0.01,1.08-0.02
		c0.3-0.02,0.56-0.05,0.79-0.1v-5.85h3.79v8.33c-0.45,0.18-1.18,0.37-2.18,0.57c-1,0.2-2.24,0.3-3.71,0.3
		c-1.26,0-2.41-0.19-3.43-0.58c-1.03-0.39-1.91-0.95-2.63-1.7c-0.73-0.74-1.29-1.66-1.69-2.74c-0.4-1.08-0.59-2.32-0.59-3.71
		c0-1.41,0.22-2.65,0.66-3.74c0.44-1.09,1.04-2,1.8-2.76c0.76-0.75,1.65-1.32,2.68-1.71c1.03-0.39,2.12-0.58,3.29-0.58
		c0.79,0,1.51,0.05,2.15,0.16c0.64,0.11,1.19,0.23,1.65,0.36c0.46,0.14,0.84,0.28,1.14,0.43c0.3,0.14,0.51,0.26,0.64,0.34
		l-1.09,3.03c-0.52-0.28-1.11-0.51-1.78-0.72S95.43,18.35,94.64,18.35z"/>
	<path class="st377" d="M107.82,19.15c1.07,0,1.96,0.12,2.67,0.36c0.71,0.24,1.28,0.59,1.71,1.04c0.43,0.45,0.73,1,0.91,1.65
		c0.18,0.65,0.27,1.37,0.27,2.16v7.52c-0.52,0.11-1.24,0.25-2.16,0.4c-0.92,0.15-2.04,0.23-3.35,0.23c-0.83,0-1.57-0.07-2.25-0.22
		c-0.67-0.15-1.25-0.38-1.74-0.72c-0.49-0.33-0.86-0.76-1.12-1.3c-0.26-0.53-0.39-1.19-0.39-1.97c0-0.74,0.15-1.37,0.45-1.89
		c0.3-0.52,0.7-0.93,1.2-1.24c0.5-0.31,1.08-0.53,1.72-0.67c0.65-0.14,1.32-0.21,2.01-0.21c0.47,0,0.89,0.02,1.25,0.06
		s0.66,0.09,0.89,0.16V24.2c0-0.62-0.19-1.11-0.56-1.48c-0.37-0.37-1.02-0.56-1.94-0.56c-0.62,0-1.22,0.04-1.82,0.13
		c-0.6,0.09-1.12,0.21-1.55,0.38l-0.46-2.91c0.21-0.06,0.47-0.13,0.79-0.21c0.32-0.07,0.66-0.14,1.03-0.19
		c0.37-0.06,0.77-0.1,1.18-0.14C106.98,19.17,107.4,19.15,107.82,19.15z M108.11,29.73c0.36,0,0.7-0.01,1.02-0.02
		c0.32-0.02,0.58-0.04,0.78-0.07v-2.74c-0.15-0.03-0.36-0.06-0.66-0.1c-0.29-0.03-0.56-0.05-0.8-0.05c-0.34,0-0.66,0.02-0.96,0.06
		s-0.56,0.12-0.79,0.23c-0.23,0.11-0.4,0.27-0.53,0.46c-0.13,0.19-0.19,0.44-0.19,0.73c0,0.57,0.19,0.96,0.57,1.18
		C106.92,29.62,107.45,29.73,108.11,29.73z"/>
	<path class="st377" d="M123.67,25.48c0-1.16-0.15-1.99-0.45-2.48c-0.3-0.48-0.81-0.73-1.54-0.73c-0.23,0-0.46,0.01-0.7,0.04
		c-0.24,0.03-0.48,0.05-0.7,0.09v9.85h-3.62V19.92c0.31-0.08,0.67-0.17,1.08-0.26c0.41-0.09,0.85-0.17,1.31-0.24
		c0.46-0.07,0.93-0.13,1.42-0.17c0.49-0.04,0.96-0.06,1.43-0.06c0.92,0,1.67,0.12,2.25,0.35c0.57,0.23,1.05,0.51,1.42,0.84
		c0.52-0.37,1.11-0.66,1.78-0.87c0.67-0.21,1.29-0.31,1.86-0.31c1.02,0,1.86,0.14,2.51,0.42c0.66,0.28,1.18,0.68,1.57,1.2
		c0.39,0.52,0.66,1.13,0.8,1.84c0.15,0.71,0.22,1.51,0.22,2.38v7.21h-3.62v-6.77c0-1.16-0.15-1.99-0.45-2.48
		c-0.3-0.48-0.81-0.73-1.54-0.73c-0.19,0-0.47,0.05-0.81,0.15c-0.35,0.1-0.64,0.22-0.86,0.36c0.11,0.37,0.19,0.76,0.22,1.18
		c0.03,0.41,0.05,0.85,0.05,1.32v6.97h-3.62V25.48z"/>
	<path class="st377" d="M136.97,25.97c0-1.13,0.17-2.12,0.52-2.97c0.35-0.85,0.81-1.56,1.37-2.12c0.57-0.57,1.22-0.99,1.95-1.29
		c0.74-0.29,1.49-0.44,2.27-0.44c1.81,0,3.24,0.55,4.3,1.66c1.05,1.11,1.58,2.74,1.58,4.89c0,0.21-0.01,0.44-0.02,0.69
		c-0.02,0.25-0.03,0.47-0.05,0.67h-8.2c0.08,0.74,0.43,1.33,1.04,1.77s1.44,0.66,2.48,0.66c0.66,0,1.31-0.06,1.95-0.18
		c0.64-0.12,1.16-0.27,1.57-0.45l0.49,2.94c-0.19,0.1-0.45,0.19-0.78,0.29c-0.32,0.1-0.68,0.18-1.08,0.26
		c-0.4,0.07-0.82,0.13-1.27,0.18c-0.45,0.05-0.91,0.07-1.36,0.07c-1.15,0-2.15-0.17-3-0.51c-0.85-0.34-1.55-0.8-2.11-1.4
		c-0.56-0.59-0.97-1.29-1.24-2.1C137.1,27.78,136.97,26.91,136.97,25.97z M145.47,24.58c-0.02-0.31-0.07-0.61-0.16-0.9
		c-0.09-0.29-0.23-0.55-0.41-0.78c-0.19-0.23-0.42-0.41-0.7-0.56c-0.28-0.15-0.64-0.22-1.06-0.22c-0.4,0-0.75,0.07-1.04,0.21
		c-0.29,0.14-0.53,0.32-0.73,0.55c-0.19,0.23-0.34,0.49-0.45,0.79c-0.11,0.3-0.18,0.6-0.23,0.91H145.47z"/>
	<path class="st377" d="M159.45,22.69c-0.32-0.08-0.7-0.17-1.14-0.26c-0.44-0.09-0.91-0.13-1.41-0.13c-0.23,0-0.5,0.02-0.81,0.06
		c-0.32,0.04-0.55,0.08-0.72,0.13v9.76h-3.62V20.17c0.65-0.23,1.41-0.44,2.29-0.64c0.88-0.2,1.86-0.3,2.95-0.3
		c0.19,0,0.43,0.01,0.7,0.04c0.28,0.02,0.55,0.06,0.83,0.1c0.27,0.04,0.55,0.09,0.83,0.15c0.28,0.06,0.51,0.13,0.7,0.21
		L159.45,22.69z"/>
	<path class="st376" d="M172.65,29.37c0.53,0,0.98-0.04,1.32-0.13c0.35-0.09,0.63-0.21,0.84-0.36c0.21-0.15,0.36-0.34,0.44-0.55
		s0.12-0.45,0.12-0.7c0-0.55-0.26-1.01-0.78-1.37c-0.52-0.36-1.41-0.76-2.67-1.18c-0.55-0.19-1.1-0.42-1.65-0.67
		c-0.55-0.25-1.04-0.57-1.48-0.95c-0.44-0.38-0.79-0.84-1.07-1.38s-0.41-1.2-0.41-1.98c0-0.78,0.15-1.48,0.44-2.1
		c0.29-0.62,0.7-1.15,1.24-1.59s1.18-0.77,1.94-1.01c0.76-0.23,1.62-0.35,2.57-0.35c1.13,0,2.11,0.12,2.94,0.36
		c0.83,0.24,1.51,0.51,2.04,0.8l-1.09,2.99c-0.47-0.24-0.99-0.46-1.57-0.64c-0.57-0.19-1.27-0.28-2.08-0.28
		c-0.91,0-1.56,0.13-1.95,0.38c-0.4,0.25-0.59,0.63-0.59,1.15c0,0.31,0.07,0.57,0.22,0.78c0.15,0.21,0.35,0.4,0.62,0.57
		c0.27,0.17,0.57,0.32,0.92,0.46c0.35,0.14,0.73,0.28,1.15,0.42c0.87,0.32,1.63,0.64,2.28,0.96c0.65,0.32,1.19,0.68,1.61,1.1
		c0.43,0.42,0.75,0.91,0.96,1.48c0.21,0.57,0.32,1.26,0.32,2.06c0,1.57-0.55,2.79-1.65,3.65c-1.1,0.87-2.76,1.3-4.98,1.3
		c-0.74,0-1.42-0.04-2.01-0.13c-0.6-0.09-1.13-0.2-1.59-0.33c-0.46-0.13-0.86-0.27-1.19-0.41c-0.33-0.14-0.61-0.28-0.84-0.41
		l1.07-3.01c0.5,0.28,1.12,0.52,1.86,0.74C170.68,29.26,171.58,29.37,172.65,29.37z"/>
	<path class="st376" d="M181.83,16.31l3.62-0.58v3.76h4.35v3.01h-4.35v4.49c0,0.76,0.13,1.37,0.4,1.82c0.27,0.45,0.8,0.68,1.61,0.68
		c0.39,0,0.79-0.04,1.2-0.11c0.41-0.07,0.79-0.17,1.13-0.3l0.51,2.82c-0.44,0.18-0.92,0.33-1.46,0.46s-1.19,0.19-1.97,0.19
		c-0.99,0-1.8-0.13-2.45-0.4c-0.65-0.27-1.17-0.64-1.55-1.12c-0.39-0.48-0.66-1.06-0.81-1.74c-0.15-0.68-0.23-1.43-0.23-2.26V16.31z
		"/>
	<path class="st376" d="M204.18,25.85c0,1-0.15,1.92-0.44,2.76c-0.29,0.83-0.71,1.55-1.26,2.14c-0.55,0.59-1.21,1.05-1.98,1.37
		c-0.77,0.32-1.63,0.49-2.59,0.49c-0.94,0-1.79-0.16-2.56-0.49c-0.77-0.32-1.43-0.78-1.98-1.37c-0.55-0.59-0.98-1.3-1.29-2.14
		c-0.31-0.83-0.46-1.75-0.46-2.76c0-1,0.16-1.92,0.47-2.74c0.32-0.83,0.75-1.53,1.31-2.11c0.56-0.58,1.22-1.04,1.99-1.36
		c0.77-0.32,1.61-0.48,2.51-0.48c0.92,0,1.77,0.16,2.54,0.48c0.77,0.32,1.43,0.78,1.98,1.36c0.55,0.58,0.98,1.29,1.29,2.11
		C204.03,23.93,204.18,24.84,204.18,25.85z M200.49,25.85c0-1.12-0.22-1.99-0.67-2.63c-0.45-0.64-1.08-0.96-1.9-0.96
		c-0.83,0-1.47,0.32-1.92,0.96c-0.45,0.64-0.68,1.52-0.68,2.63c0,1.12,0.23,2,0.68,2.66c0.45,0.66,1.09,0.98,1.92,0.98
		c0.83,0,1.46-0.33,1.9-0.98C200.27,27.85,200.49,26.96,200.49,25.85z"/>
	<path class="st376" d="M214.67,22.69c-0.32-0.08-0.7-0.17-1.14-0.26c-0.44-0.09-0.91-0.13-1.41-0.13c-0.23,0-0.5,0.02-0.81,0.06
		c-0.32,0.04-0.55,0.08-0.72,0.13v9.76h-3.62V20.17c0.65-0.23,1.41-0.44,2.29-0.64c0.88-0.2,1.86-0.3,2.95-0.3
		c0.19,0,0.43,0.01,0.7,0.04c0.28,0.02,0.55,0.06,0.83,0.1c0.27,0.04,0.55,0.09,0.83,0.15c0.28,0.06,0.51,0.13,0.7,0.21
		L214.67,22.69z"/>
	<path class="st376" d="M216.37,25.97c0-1.13,0.17-2.12,0.52-2.97c0.35-0.85,0.81-1.56,1.37-2.12c0.57-0.57,1.22-0.99,1.95-1.29
		c0.74-0.29,1.49-0.44,2.27-0.44c1.81,0,3.24,0.55,4.3,1.66c1.05,1.11,1.58,2.74,1.58,4.89c0,0.21-0.01,0.44-0.02,0.69
		c-0.02,0.25-0.03,0.47-0.05,0.67h-8.2c0.08,0.74,0.43,1.33,1.04,1.77s1.44,0.66,2.48,0.66c0.66,0,1.31-0.06,1.95-0.18
		c0.64-0.12,1.16-0.27,1.57-0.45l0.49,2.94c-0.19,0.1-0.45,0.19-0.78,0.29c-0.32,0.1-0.68,0.18-1.08,0.26
		c-0.4,0.07-0.82,0.13-1.27,0.18c-0.45,0.05-0.91,0.07-1.36,0.07c-1.15,0-2.15-0.17-3-0.51c-0.85-0.34-1.55-0.8-2.11-1.4
		c-0.56-0.59-0.97-1.29-1.24-2.1C216.5,27.78,216.37,26.91,216.37,25.97z M224.86,24.58c-0.02-0.31-0.07-0.61-0.16-0.9
		c-0.09-0.29-0.23-0.55-0.41-0.78c-0.19-0.23-0.42-0.41-0.7-0.56c-0.28-0.15-0.64-0.22-1.06-0.22c-0.4,0-0.75,0.07-1.04,0.21
		c-0.29,0.14-0.53,0.32-0.73,0.55c-0.19,0.23-0.34,0.49-0.45,0.79c-0.11,0.3-0.18,0.6-0.23,0.91H224.86z"/>
</g>
</svg>
